# xmcd CD database file
#
# Track frame offsets:
#	150
#	17789
#	38247
#	56080
#	70806
#	94152
#	111797
#	130465
#	142938
#	154727
#
# Disc length: 2476 seconds
#
# Revision: 0
# Processed by: cddbd v1.5.2PL0 Copyright (c) Steve Scherf et al.
# Submitted via: CDex 1.70beta2
#
DISCID=8809aa0a
DTITLE=Howlin wolf - The Howlin Wolf Album
DYEAR=1969
DGENRE=Blues
TTITLE0=Spoonfull
TTITLE1=Tail Dragger
TTITLE2=Smokestack Lightning
TTITLE3=Moanin at Midnight
TTITLE4=Built For Comfort
TTITLE5=The Red Rooster
TTITLE6=Evil
TTITLE7=Down In The Bottom
TTITLE8=Three Hundred Pounds Of Joy
TTITLE9=Back Door Man
EXTD=YEAR: 1969
EXTT0=
EXTT1=
EXTT2=
EXTT3=
EXTT4=
EXTT5=
EXTT6=
EXTT7=
EXTT8=
EXTT9=
PLAYORDER=
